<svg xmlns="http://www.w3.org/2000/svg" xmlns:xlink="http://www.w3.org/1999/xlink" width="0" height="0" style="position:absolute">
	
		<symbol id="alert-attention" viewBox="0 0 286.054 286.054">
			<path d="M143.027 0C64.04 0 0 64.04 0 143.027c0 78.996 64.04 143.027 143.027 143.027 78.996 0 143.027-64.022 143.027-143.027C286.054 64.04 222.022 0 143.027 0zm0 259.236c-64.183 0-116.209-52.026-116.209-116.209S78.844 26.818 143.027 26.818s116.209 52.026 116.209 116.209-52.026 116.209-116.209 116.209zm.009-196.51c-10.244 0-17.995 5.346-17.995 13.981v79.201c0 8.644 7.75 13.972 17.995 13.972 9.994 0 17.995-5.551 17.995-13.972V76.707c-.001-8.43-8.001-13.981-17.995-13.981zm0 124.997c-9.842 0-17.852 8.01-17.852 17.86 0 9.833 8.01 17.843 17.852 17.843s17.843-8.01 17.843-17.843c-.001-9.851-8.001-17.86-17.843-17.86z" fill="#ffe03f"></path>
		</symbol>
	
		<symbol id="alert-info" viewBox="0 0 330 330">
			<g fill="#e5e5e5"><path d="M165 0C74.019 0 0 74.02 0 165.001 0 255.982 74.019 330 165 330s165-74.018 165-164.999S255.981 0 165 0zm0 300c-74.44 0-135-60.56-135-134.999S90.56 30 165 30s135 60.562 135 135.001C300 239.44 239.439 300 165 300z"></path><path d="M164.998 70c-11.026 0-19.996 8.976-19.996 20.009 0 11.023 8.97 19.991 19.996 19.991 11.026 0 19.996-8.968 19.996-19.991 0-11.033-8.97-20.009-19.996-20.009zM165 140c-8.284 0-15 6.716-15 15v90c0 8.284 6.716 15 15 15 8.284 0 15-6.716 15-15v-90c0-8.284-6.716-15-15-15z"></path></g>
		</symbol>
	
		<symbol id="alert-invalid" viewBox="0 0 286.054 286.054">
			<path d="M168.352 142.924l25.28-25.28c3.495-3.504 3.495-9.154 0-12.64l-12.64-12.649c-3.495-3.486-9.145-3.495-12.64 0l-25.289 25.289-25.271-25.271c-3.504-3.504-9.163-3.504-12.658-.018l-12.64 12.649c-3.495 3.486-3.486 9.154.018 12.649l25.271 25.271-25.227 25.226a8.93 8.93 0 0 0 0 12.64l12.64 12.649c3.495 3.486 9.145 3.495 12.64 0l25.226-25.226 25.405 25.414c3.504 3.504 9.163 3.504 12.658.009l12.64-12.64c3.495-3.495 3.486-9.154-.009-12.658l-25.404-25.414zM143.027.004C64.031.004 0 64.036 0 143.022c0 78.996 64.031 143.027 143.027 143.027s143.027-64.031 143.027-143.027C286.054 64.045 222.022.004 143.027.004zm0 259.228c-64.183 0-116.209-52.026-116.209-116.209s52.026-116.21 116.209-116.21 116.209 52.026 116.209 116.209-52.026 116.21-116.209 116.21z" fill="#e2574c"></path>
		</symbol>
	
		<symbol id="alert-valid" viewBox="0 0 286.054 286.054">
			<path d="M143.031 0C64.027 0 .004 64.04.004 143.027c0 78.996 64.031 143.027 143.027 143.027 78.987 0 143.018-64.031 143.018-143.027C286.049 64.049 222.018 0 143.031 0zm0 259.236c-64.183 0-116.209-52.026-116.209-116.209S78.857 26.818 143.031 26.818s116.2 52.026 116.2 116.209-52.025 116.209-116.2 116.209zm56.21-177.049c-6.079-3.629-13.847-1.475-17.342 4.827l-47.959 86.147-26.71-32.512c-4.836-5.569-11.263-8.456-17.333-4.827-6.079 3.638-8.591 12.39-4.657 18.004l37.169 45.241c2.78 3.611 5.953 5.775 9.27 6.392l.027.054.34.018c.751.116 11.979 2.19 16.815-6.463l55.048-98.876c3.493-6.313 1.411-14.367-4.668-18.005z" fill="#3db39e"></path>
		</symbol>
	
		<symbol id="arrow-next" viewBox="0 0 30 15">
			<path d="M29.656 6.436v-.001L23.531.341a1.172 1.172 0 0 0-1.653 1.661l4.11 4.092H1.173a1.172 1.172 0 1 0 0 2.343H25.99l-4.111 4.092a1.172 1.172 0 0 0 1.653 1.661l6.123-6.094h.001a1.173 1.173 0 0 0 0-1.66z" fill="#999"></path>
		</symbol>
	
		<symbol id="arrow-prev" viewBox="0 0 10 19">
			<path d="M.211 10.021l8.564 8.764a.705.705 0 0 0 1.015-.001.75.75 0 0 0-.001-1.042L1.734 9.5 9.79 1.258A.75.75 0 0 0 9.791.217.707.707 0 0 0 8.775.215L.211 8.979a.747.747 0 0 0 0 1.043z" fill="#fff"></path>
		</symbol>
	
		<symbol id="close" viewBox="0 0 311 311.07733">
			<path d="M16.035 311.078c-4.097 0-8.195-1.558-11.308-4.695-6.25-6.25-6.25-16.383 0-22.633L283.789 4.687c6.25-6.25 16.383-6.25 22.633 0s6.25 16.383 0 22.637L27.363 306.383a16.045 16.045 0 0 1-11.328 4.695zm0 0"></path><path d="M295.117 311.078a15.879 15.879 0 0 1-11.308-4.695L4.727 27.324c-6.25-6.254-6.25-16.386 0-22.636s16.382-6.25 22.636 0L306.422 283.75c6.25 6.25 6.25 16.383 0 22.633-3.137 3.117-7.23 4.695-11.305 4.695zm0 0"></path>
		</symbol>
	
		<symbol id="download" viewBox="0 0 18 16">
			<path d="M11.921 8.665a.75.75 0 0 0-.671-.415h-1.5V.75a.75.75 0 1 0-1.5 0v7.5h-1.5a.75.75 0 0 0-.6 1.2l2.25 3c.01.013.025.017.035.03.05.058.108.103.173.144.027.016.048.038.078.052A.736.736 0 0 0 9 12.75c.113 0 .218-.03.315-.074.028-.014.05-.036.076-.052a.731.731 0 0 0 .174-.145c.01-.012.025-.016.035-.029l2.25-3a.749.749 0 0 0 .071-.785z" fill="#323754"></path><path d="M17.25 9.25a.75.75 0 0 0-.75.75v2.25c0 1.24-1.01 2.25-2.25 2.25H3.75c-1.24 0-2.25-1.01-2.25-2.25V10A.75.75 0 1 0 0 10v2.25A3.754 3.754 0 0 0 3.75 16h10.5A3.754 3.754 0 0 0 18 12.25V10a.75.75 0 0 0-.75-.75z" fill="#323754"></path>
		</symbol>
	
		<symbol id="farba" viewBox="0 0 25 37">
			<path d="M3.757 7.655l4.623-4.54 4.617 4.565-4.642 4.54-4.598-4.565z" fill="#5DAA1A"></path><path d="M16.17.042l.568 1.239c-2.663 1.25-3.347 6.48-3.372 8.397l-.032 11.7-1.36.017.033-11.78c-.02-.32.158-7.687 4.163-9.573z" fill="#5DAA1A"></path><path d="M24.093 13.46l-23.13-.063-.06 22.763 23.129.062.061-22.762z" fill="#E33226"></path><path d="M12.68 15.745l8.905.024-.025 9.025-8.88-9.049z" fill="#fff"></path>
		</symbol>
	
		<symbol id="h-insta" viewBox="0 0 12 12">
			<path d="M8.752 0H3.248A3.252 3.252 0 0 0 0 3.248v5.504A3.252 3.252 0 0 0 3.248 12h5.504A3.252 3.252 0 0 0 12 8.752V3.248A3.252 3.252 0 0 0 8.752 0zm2.544 8.752a2.548 2.548 0 0 1-2.544 2.544H3.248A2.548 2.548 0 0 1 .703 8.752V3.248A2.548 2.548 0 0 1 3.248.703h5.504a2.548 2.548 0 0 1 2.544 2.545v5.504z"></path><path d="M6 2.77A3.234 3.234 0 0 0 2.77 6c0 1.781 1.449 3.23 3.23 3.23 1.782 0 3.23-1.449 3.23-3.23S7.783 2.77 6 2.77zm0 5.768A2.541 2.541 0 0 1 3.462 6c0-1.4 1.139-2.538 2.538-2.538C7.4 3.462 8.538 4.6 8.538 6A2.54 2.54 0 0 1 6 8.538zM9.23 1.846a.924.924 0 0 0 0 1.846.924.924 0 0 0 0-1.846zm0 1.176a.254.254 0 1 1 .001-.507.254.254 0 0 1 0 .507z"></path>
		</symbol>
	
		<symbol id="h-mail" viewBox="0 0 13 13">
			<path d="M6.5 1.182a5.318 5.318 0 1 0 0 10.636.59.59 0 1 1 0 1.182A6.5 6.5 0 1 1 13 6.5c0 .69-.074 1.53-.385 2.22-.159.351-.39.688-.729.936-.344.254-.765.39-1.25.39-.497 0-.922-.153-1.265-.422-.334-.262-.56-.611-.716-.967a3.379 3.379 0 0 1-.04-.094A2.955 2.955 0 1 1 8.33 4.18a.591.591 0 0 1 1.126.252V6.5c0 .559.072 1.202.282 1.684.103.235.227.403.364.51.128.1.294.17.535.17.254 0 .425-.068.55-.16.133-.098.252-.25.352-.471.206-.456.28-1.093.28-1.733A5.318 5.318 0 0 0 6.5 1.182zM8.273 6.5a1.773 1.773 0 1 0-3.546 0 1.773 1.773 0 0 0 3.546 0z"></path>
		</symbol>
	
		<symbol id="h-phone" viewBox="0 0 11 12">
			<path d="M10.711 8.09L9.173 6.552c-.55-.55-1.483-.33-1.703.384-.165.495-.714.77-1.209.66C5.163 7.32 3.68 5.891 3.405 4.738c-.165-.495.164-1.044.659-1.21.714-.219.934-1.153.384-1.702L2.91.288c-.44-.384-1.099-.384-1.483 0L.383 1.332c-1.044 1.1.11 4.01 2.692 6.593 2.582 2.582 5.494 3.79 6.593 2.692l1.043-1.044c.385-.44.385-1.099 0-1.483z"></path>
		</symbol>
	
		<symbol id="list" viewBox="0 0 16 12">
			<circle cx="1" cy="1" r="1" fill="#323754"></circle><circle cx="1" cy="6" r="1" fill="#323754"></circle><circle cx="1" cy="11" r="1" fill="#323754"></circle><rect x="4" width="12" height="2" rx="1" fill="#323754"></rect><rect x="4" y="5" width="12" height="2" rx="1" fill="#323754"></rect><rect x="4" y="10" width="12" height="2" rx="1" fill="#323754"></rect>
		</symbol>
	
		<symbol id="mail" viewBox="0 0 16 17">
			<path d="M8 1.9c-3.615 0-6.545 2.872-6.545 6.415 0 3.542 2.93 6.414 6.545 6.414a.72.72 0 0 1 .727.713.72.72 0 0 1-.727.712c-4.418 0-8-3.51-8-7.84C0 3.986 3.582.476 8 .476s8 3.51 8 7.84c0 .832-.09 1.846-.474 2.677-.195.424-.48.83-.896 1.13-.425.305-.942.469-1.54.469-.611 0-1.134-.184-1.556-.508-.41-.316-.69-.737-.882-1.166a4.095 4.095 0 0 1-.049-.114A3.662 3.662 0 0 1 8 11.878c-2.008 0-3.636-1.595-3.636-3.563C4.364 6.347 5.992 4.75 8 4.75c.85 0 1.632.286 2.251.765a.729.729 0 0 1 .658-.408.72.72 0 0 1 .727.712v2.495c0 .674.09 1.45.349 2.03.126.284.278.487.447.616.157.121.362.204.659.204.312 0 .522-.08.677-.192.163-.118.31-.302.433-.568.253-.55.345-1.318.345-2.09C14.546 4.772 11.614 1.9 8 1.9zm2.182 6.415c0-1.181-.977-2.138-2.182-2.138s-2.182.957-2.182 2.138c0 1.18.977 2.138 2.182 2.138s2.182-.957 2.182-2.138z" fill="#FCFCFC"></path>
		</symbol>
	
		<symbol id="phone" viewBox="0 0 17 16">
			<path d="M1.942 2.435C.885 3.428.404 4.969 1.316 6.31c.753 1.108 2.076 2.723 4.395 4.901 2.318 2.178 4.036 3.421 5.216 4.13 1.427.857 3.067.405 4.124-.589l1.127-1.059a2.015 2.015 0 0 0 0-2.975L14.7 9.328c-.659-.618-1.676-.745-2.483-.309a1.283 1.283 0 0 1-1.476-.184L8.24 6.485a1.098 1.098 0 0 1-.196-1.387c.464-.758.33-1.715-.329-2.333l-1.478-1.39c-.875-.82-2.293-.82-3.167 0l-1.127 1.06zm.632 3.12c-.433-.637-.286-1.462.423-2.128l1.128-1.06a.78.78 0 0 1 1.055 0l1.479 1.39c.18.17.218.433.09.642-.612 1-.433 2.261.435 3.077l2.502 2.351c.868.816 2.21.983 3.275.408a.595.595 0 0 1 .683.085l1.479 1.39a.672.672 0 0 1 0 .991l-1.128 1.06c-.709.666-1.587.805-2.264.398-1.069-.642-2.704-1.816-4.965-3.94-2.26-2.124-3.51-3.66-4.192-4.664zM10.66 1.58c0-.387.334-.701.746-.701 2.886 0 5.225 2.198 5.225 4.909 0 .387-.334.701-.746.701-.413 0-.747-.314-.747-.701 0-1.937-1.67-3.507-3.732-3.507-.412 0-.746-.314-.746-.7zm0 2.805c0-.387.334-.7.746-.7 1.237 0 2.24.941 2.24 2.103 0 .387-.335.701-.747.701s-.746-.314-.746-.701c0-.387-.335-.701-.747-.701s-.746-.314-.746-.702z"></path>
		</symbol>
	
		<symbol id="pin" viewBox="0 0 14 16">
			<path d="M3.229 3.585c1-.94 2.357-1.467 3.771-1.467 1.415 0 2.771.528 3.771 1.467 1 .94 1.563 2.215 1.563 3.544 0 1.94-1.344 3.824-2.818 5.285A19.233 19.233 0 0 1 7 14.504a19.233 19.233 0 0 1-2.516-2.09c-1.473-1.461-2.817-3.345-2.817-5.285 0-1.33.562-2.604 1.562-3.544zM6.63 15.793l.37-.521-.37.521c.224.14.516.14.74 0L7 15.272l.37.521.002-.001.005-.003.015-.01a8.506 8.506 0 0 0 .256-.17 20.54 20.54 0 0 0 2.836-2.334c1.527-1.514 3.183-3.702 3.183-6.146 0-1.662-.703-3.255-1.953-4.43C10.464 1.525 8.768.865 7 .865c-1.768 0-3.464.66-4.714 1.834C1.036 3.874.333 5.467.333 7.13c0 2.444 1.657 4.633 3.183 6.146a20.538 20.538 0 0 0 3.092 2.504l.016.01.004.003h.002v.001zm-.963-8.664c0-.692.597-1.253 1.333-1.253.737 0 1.334.56 1.334 1.253 0 .692-.597 1.253-1.334 1.253-.736 0-1.333-.561-1.333-1.253zM7 4.623c-1.473 0-2.666 1.122-2.666 2.506 0 1.384 1.193 2.505 2.666 2.505 1.473 0 2.667-1.121 2.667-2.505S8.473 4.623 7 4.623z"></path>
		</symbol>
	
		<symbol id="s-fb" viewBox="0 0 96.124 96.123">
			<path d="M72.089.02L59.624 0C45.62 0 36.57 9.285 36.57 23.656v10.907H24.037a1.96 1.96 0 0 0-1.96 1.961v15.803a1.96 1.96 0 0 0 1.96 1.96H36.57v39.876a1.96 1.96 0 0 0 1.96 1.96h16.352a1.96 1.96 0 0 0 1.96-1.96V54.287h14.654a1.96 1.96 0 0 0 1.96-1.96l.006-15.803a1.963 1.963 0 0 0-1.961-1.961H56.842v-9.246c0-4.444 1.059-6.7 6.848-6.7l8.397-.003a1.96 1.96 0 0 0 1.959-1.96V1.98A1.96 1.96 0 0 0 72.089.02z"></path>
		</symbol>
	
		<symbol id="s-insta" viewBox="0 0 18 18">
			<path d="M13.128 0H4.872A4.878 4.878 0 0 0 0 4.872v8.256A4.878 4.878 0 0 0 4.872 18h8.256A4.878 4.878 0 0 0 18 13.128V4.872A4.878 4.878 0 0 0 13.128 0zM9 13.922A4.927 4.927 0 0 1 4.078 9 4.927 4.927 0 0 1 9 4.078 4.927 4.927 0 0 1 13.922 9 4.927 4.927 0 0 1 9 13.922zm5.04-8.683a1.456 1.456 0 0 1-1.455-1.454c0-.802.652-1.455 1.454-1.455.802 0 1.455.653 1.455 1.455s-.653 1.454-1.455 1.454z"></path><path d="M9 5.134A3.87 3.87 0 0 0 5.132 9a3.871 3.871 0 0 0 3.866 3.867A3.87 3.87 0 0 0 12.866 9a3.87 3.87 0 0 0-3.867-3.866zM14.04 3.386a.4.4 0 1 0 0 .799.4.4 0 0 0 0-.8z"></path>
		</symbol>
	
		<symbol id="s-ok" viewBox="0 0 60 60">
			<title>Монтажная область 2 копия 12</title><path d="M27.46 40.56c-4-.42-7.62-1.41-10.71-3.82a12.69 12.69 0 0 1-1.13-.93 3 3 0 0 1-.42-4.32 3 3 0 0 1 4.05-.91 6.09 6.09 0 0 1 .89.52 17.55 17.55 0 0 0 19.46.18 5.3 5.3 0 0 1 1.9-1 3 3 0 0 1 3.41 1.36 2.9 2.9 0 0 1-.21 3.8 15.83 15.83 0 0 1-5.7 3.68 26.66 26.66 0 0 1-6.43 1.43c.33.36.49.54.7.75 3 3 6 6 8.92 9a3 3 0 0 1 .67 3.48 3.53 3.53 0 0 1-3.31 2.06 3.25 3.25 0 0 1-2.09-1.07c-2.2-2.3-4.46-4.52-6.69-6.77-.64-.67-.95-.54-1.51 0-2.26 2.33-4.56 4.62-6.87 6.89a2.88 2.88 0 0 1-3.47.63 3.52 3.52 0 0 1-2-3.24A3.19 3.19 0 0 1 18 50.1l8.82-8.83c.19-.2.37-.41.66-.71zm0 0" fill-rule="evenodd"></path><path d="M29.9 30.32a13.08 13.08 0 1 1 13.15-12.91A13.09 13.09 0 0 1 29.9 30.32zm6.49-13.09A6.4 6.4 0 1 0 30 23.64a6.36 6.36 0 0 0 6.36-6.41zm0 0" fill-rule="evenodd"></path>
		</symbol>
	
		<symbol id="s-tw" viewBox="0 0 612 612">
			<path d="M612 116.258a250.714 250.714 0 0 1-72.088 19.772c25.929-15.527 45.777-40.155 55.184-69.411-24.322 14.379-51.169 24.82-79.775 30.48-22.907-24.437-55.49-39.658-91.63-39.658-69.334 0-125.551 56.217-125.551 125.513 0 9.828 1.109 19.427 3.251 28.606-104.326-5.24-196.835-55.223-258.75-131.174-10.823 18.51-16.98 40.078-16.98 63.101 0 43.559 22.181 81.993 55.835 104.479a125.556 125.556 0 0 1-56.867-15.756v1.568c0 60.806 43.291 111.554 100.693 123.104-10.517 2.83-21.607 4.398-33.08 4.398-8.107 0-15.947-.803-23.634-2.333 15.985 49.907 62.336 86.199 117.253 87.194-42.947 33.654-97.099 53.655-155.916 53.655-10.134 0-20.116-.612-29.944-1.721 55.567 35.681 121.536 56.485 192.438 56.485 230.948 0 357.188-191.291 357.188-357.188l-.421-16.253c24.666-17.593 46.005-39.697 62.794-64.861z"></path>
		</symbol>
	
		<symbol id="s-vk" viewBox="0 0 60 60">
			<title>Монтажная область 2 копия 11</title><path d="M51 34.38a78.73 78.73 0 0 1 5.69 5.72 16.59 16.59 0 0 1 2 2.94c.78 1.52.07 3.19-1.29 3.28h-8.46a6.53 6.53 0 0 1-5.39-2.19c-1.18-1.2-2.26-2.47-3.39-3.7a8.18 8.18 0 0 0-1.52-1.36 1.77 1.77 0 0 0-2.82.69 8.82 8.82 0 0 0-.89 4c-.09 2-.7 2.52-2.7 2.61a21.64 21.64 0 0 1-12.11-2.61A26.79 26.79 0 0 1 12 36.08 102.21 102.21 0 0 1 1.24 17c-.68-1.51-.19-2.32 1.48-2.35q4.14-.07 8.29 0a2.44 2.44 0 0 1 2.3 1.72 51.49 51.49 0 0 0 5.61 10.41 8.92 8.92 0 0 0 2.13 2.33 1.29 1.29 0 0 0 2.19-.64 7.16 7.16 0 0 0 .48-2.19 32.64 32.64 0 0 0-.13-7.65 3.19 3.19 0 0 0-2.72-2.92c-.81-.15-.69-.45-.3-.91a3 3 0 0 1 2.6-1.3h9.57c1.51.3 1.84 1 2 2.49v10.59c0 .59.3 2.33 1.35 2.72.85.27 1.41-.4 1.91-.94a32.59 32.59 0 0 0 5.39-8.28c.65-1.31 1.21-2.67 1.75-4a2 2 0 0 1 2.16-1.48h9.21a5.42 5.42 0 0 1 .81.05c1.56.27 2 .94 1.5 2.45a22.74 22.74 0 0 1-3.66 6.35c-1.54 2.12-3.18 4.18-4.7 6.31-1.4 2-1.29 2.94.45 4.64zm0 0" fill-rule="evenodd"></path>
		</symbol>
	
		<symbol id="s-yt" viewBox="0 0 21 14">
			<path clip-rule="evenodd" d="M17.825 0H3.145C1.399 0 0 1.33 0 2.994v8.012C0 12.642 1.398 14 3.146 14h14.708C19.573 14 21 12.67 21 11.006V2.994C20.97 1.331 19.573 0 17.825 0zM8.388 10.368V2.855l6 3.77-6 3.743z"></path>
		</symbol>
	
		<symbol id="searcher" viewBox="0 0 17 17">
			<path d="M6.667 0C2.993 0 0 2.993 0 6.667s2.993 6.666 6.667 6.666a6.631 6.631 0 0 0 4.215-1.509l3.98 3.98a.665.665 0 0 0 .952.01.666.666 0 0 0-.01-.952l-3.98-3.98a6.631 6.631 0 0 0 1.51-4.215C13.333 2.993 10.34 0 6.666 0zm0 1.333A5.323 5.323 0 0 1 12 6.667 5.323 5.323 0 0 1 6.667 12a5.323 5.323 0 0 1-5.334-5.333 5.323 5.323 0 0 1 5.334-5.334z" fill="#465568"></path>
		</symbol>
	
		<symbol id="slick-next" viewBox="0 0 30 16">
			<path d="M29.656 7.17l-6.124-6.094a1.172 1.172 0 0 0-1.653 1.66l4.11 4.092H1.173a1.172 1.172 0 1 0 0 2.344H25.99l-4.111 4.091a1.172 1.172 0 1 0 1.653 1.661l6.123-6.093.001-.001a1.173 1.173 0 0 0 0-1.66z" fill="#D19876"></path>
		</symbol>
	
		<symbol id="slick-prev" viewBox="0 0 30 16">
			<path d="M.344 8.83l6.124 6.094a1.172 1.172 0 0 0 1.653-1.66l-4.11-4.092h24.817a1.172 1.172 0 1 0 0-2.344H4.01l4.111-4.091a1.172 1.172 0 1 0-1.653-1.661L.345 7.169l-.001.001a1.173 1.173 0 0 0 0 1.66z" fill="#D19876"></path>
		</symbol>
	
		<symbol id="telegram" viewBox="0 0 24 24">
			<path d="M19.555 2.996a2.235 2.235 0 0 0-.703.168c-.215.086-1.23.512-2.778 1.16-1.543.653-3.547 1.496-5.535 2.332-3.973 1.672-7.879 3.32-7.879 3.32l.047-.019s-.27.09-.55.281c-.145.094-.302.223-.438.426-.14.203-.25.512-.211.832.07.543.422.867.672 1.047.254.18.5.266.5.266h.004l3.664 1.234c.164.527 1.113 3.656 1.343 4.375.133.434.266.703.43.906.078.106.172.196.285.266a.875.875 0 0 0 .184.078l-.04-.008c.013 0 .024.012.032.012.027.012.05.012.086.02.582.175 1.047-.184 1.047-.184l.027-.024 2.16-1.968 3.625 2.78.082.036c.758.332 1.52.148 1.926-.18.406-.328.567-.746.567-.746l.023-.066 2.8-14.348c.083-.355.102-.683.012-1.008a1.346 1.346 0 0 0-1.382-.988zm-.078 1.54c-.004.046.003.042-.016.132v.008L16.688 18.87c-.012.024-.032.067-.086.11-.059.046-.106.078-.352-.02l-4.434-3.398-2.675 2.44.562-3.593s6.942-6.472 7.242-6.75c.297-.277.2-.336.2-.336.02-.34-.454-.101-.454-.101l-9.128 5.66-.004-.016-4.38-1.472v-.004s-.007-.004-.011-.004c.004 0 .023-.008.023-.008l.024-.012.027-.008s3.906-1.648 7.88-3.32c1.987-.836 3.991-1.684 5.534-2.332 1.54-.648 2.68-1.121 2.742-1.148.063-.024.036-.024.079-.024z" fill="#3498DB"></path>
		</symbol>
	
		<symbol id="viber" viewBox="0 0 24 24">
			<path d="M12 2.5c-1.32 0-5.335 0-7.555 2.027C3.123 5.844 2.5 7.747 2.5 10.5V12c0 2.753.623 4.656 1.96 5.988.667.608 1.575 1.093 2.684 1.428l.356.107v2.665c0 .312.09.312.12.312.062 0 .16-.02.348-.186.044-.044.374-.401 1.98-2.199l.162-.181.242.015c.537.034 1.092.051 1.648.051 1.32 0 5.335 0 7.555-2.027C20.877 16.655 21.5 14.752 21.5 12v-1.5c0-2.753-.623-4.656-1.96-5.988C17.334 2.5 13.32 2.5 12 2.5z" fill="transparent"></path><path d="M16.726 14.427c-.556-.468-.812-.61-1.58-1.07-.319-.191-.806-.357-1.062-.357-.174 0-.383.133-.511.261-.328.329-.436.739-1.01.739-.563 0-1.546-.572-2.25-1.313C9.572 11.983 9 11 9 10.438c0-.574.403-.69.731-1.018.128-.128.269-.337.269-.511 0-.255-.166-.735-.357-1.054-.46-.768-.602-1.024-1.07-1.58C8.414 6.087 8.234 6 8.045 6c-.32 0-.739.158-1.023.37-.427.318-.874.752-.993 1.292A1.285 1.285 0 0 0 6 7.883c-.023.562.198 1.134.437 1.617.561 1.14 1.304 2.242 2.113 3.227.258.316.54.608.831.891.283.291.576.573.892.832.985.809 2.088 1.552 3.227 2.113.479.236 1.043.453 1.6.437.08-.003.159-.012.239-.029.54-.119.973-.566 1.292-.993.211-.284.37-.703.369-1.023 0-.189-.087-.37-.274-.528zM17 12a.5.5 0 0 1-.5-.5V11c0-2.481-2.019-4.5-4.5-4.5a.5.5 0 0 1 0-1c3.033 0 5.5 2.468 5.5 5.5v.5a.5.5 0 0 1-.5.5zm-3.071-1a.5.5 0 0 1-.484-.374 1.494 1.494 0 0 0-1.07-1.071.5.5 0 0 1 .25-.969 2.497 2.497 0 0 1 1.788 1.787.5.5 0 0 1-.484.627z" fill="#7E57C2"></path><path d="M15.5 11.5a.5.5 0 0 1-.5-.5 2.997 2.997 0 0 0-2.839-2.993.5.5 0 1 1 .053-.999A3.996 3.996 0 0 1 16 11a.5.5 0 0 1-.5.5z" fill="#7E57C2"></path><path d="M12 2c-2.25 0-5.756.207-7.892 2.158C2.598 5.661 2 7.77 2 10.5c0 .226-.001.478.001.75-.002.271-.001.524-.001.75 0 2.729.598 4.838 2.108 6.341.813.743 1.827 1.232 2.892 1.553v2.294c0 .797.525.812.62.812h.005c.247-.001.46-.122.675-.312.08-.072 1.01-1.107 2.02-2.24A26.49 26.49 0 0 0 12 20.5c2.25 0 5.755-.207 7.892-2.159C21.4 16.838 22 14.73 22 12c0-.226 0-.478-.002-.75.002-.272.002-.523.002-.75 0-2.729-.599-4.838-2.108-6.342C17.756 2.207 14.25 2 12 2zm8.5 9.825V12c0 2.453-.523 4.124-1.643 5.256C16.916 19 13.219 19 12 19c-.371 0-.973 0-1.684-.05L8 21.541V18.61c-1.052-.252-2.091-.666-2.857-1.354-1.12-1.132-1.643-2.803-1.643-5.257v-.174l.001-.586-.001-.565V10.5c0-2.453.523-4.125 1.643-5.256C7.083 3.5 10.781 3.5 12 3.5c1.219 0 4.916 0 6.857 1.744C19.977 6.375 20.5 8.047 20.5 10.5v.174c0 .176 0 .365-.002.587.002.2.002.389.002.565z" fill="#7E57C2"></path>
		</symbol>
	
		<symbol id="whatsapp" viewBox="0 0 26 26">
			<path fill-rule="evenodd" clip-rule="evenodd" d="M19.91 6.098a9.648 9.648 0 0 0-6.868-2.848c-5.353 0-9.712 4.354-9.712 9.708 0 1.71.445 3.377 1.295 4.85l-1.375 5.03 5.146-1.35a9.691 9.691 0 0 0 4.642 1.182h.004c5.35 0 9.704-4.355 9.708-9.708a9.658 9.658 0 0 0-2.84-6.864zm-6.868 14.934h-.004a8.068 8.068 0 0 1-4.105-1.126l-.296-.173-3.055.8.812-2.98-.19-.304a8.034 8.034 0 0 1-1.232-4.291c0-4.448 3.619-8.066 8.074-8.066a8.01 8.01 0 0 1 5.7 2.365 8.015 8.015 0 0 1 2.362 5.705c0 4.452-3.618 8.07-8.066 8.07zm4.423-6.043c-.242-.123-1.435-.711-1.655-.787-.224-.085-.385-.123-.546.118-.16.246-.626.792-.77.953-.14.16-.28.181-.52.059-.246-.119-1.029-.377-1.956-1.206-.72-.64-1.206-1.435-1.346-1.676-.143-.246-.016-.377.102-.495.114-.11.246-.284.368-.428.119-.14.161-.24.242-.402.08-.16.038-.304-.022-.427-.059-.119-.546-1.316-.749-1.803-.194-.47-.397-.406-.546-.415-.14-.004-.3-.004-.46-.004a.876.876 0 0 0-.648.305c-.225.241-.85.825-.85 2.018 0 1.194.87 2.35.99 2.514.122.157 1.713 2.607 4.146 3.656.576.254 1.029.402 1.38.512.58.187 1.113.161 1.532.098.465-.068 1.434-.584 1.638-1.155.198-.563.198-1.05.14-1.151-.064-.102-.225-.161-.47-.284z" fill="#40C351"></path>
		</symbol>
	
		<symbol id="why-1" viewBox="0 0 50 60">
			<path d="M44.531 28.477a1.172 1.172 0 1 0-2.343 0 7.039 7.039 0 0 1-7.032 7.03 1.172 1.172 0 1 0 0 2.345c5.17 0 9.375-4.206 9.375-9.375zM20.117 39.9c-.62.933-6.055 9.229-6.055 12.717 0 4.002 3.22 7.383 7.032 7.383 3.811 0 7.031-3.381 7.031-7.383 0-3.488-5.435-11.784-6.054-12.718a1.173 1.173 0 0 0-1.954 0zm5.664 12.717c0 2.684-2.19 5.04-4.687 5.04-2.497 0-4.688-2.355-4.688-5.04 0-1.806 2.574-6.519 4.688-9.903 2.113 3.384 4.687 8.097 4.687 9.903zM8.203 19.453c-.385 0-.745.19-.964.506C6.498 21.032 0 30.558 0 34.688c0 4.523 3.68 8.203 8.203 8.203s8.203-3.68 8.203-8.203c0-4.13-6.498-13.657-7.239-14.729a1.172 1.172 0 0 0-.964-.506zm0 21.094a5.866 5.866 0 0 1-5.86-5.86c0-2.266 3.278-8.02 5.86-11.96 2.582 3.94 5.86 9.693 5.86 11.96 0 3.231-2.629 5.86-5.86 5.86zM23.438 27.305a1.172 1.172 0 1 1-2.344 0 1.172 1.172 0 0 1 2.343 0z" fill="#D19876"></path><path d="M36.144.541a1.173 1.173 0 0 0-1.976 0c-.337.529-8.302 13.044-11.628 21.867a1.171 1.171 0 1 0 2.193.827C27.294 16.44 32.89 7.067 35.16 3.381c4.006 6.48 11.715 19.999 11.715 25.096 0 6.461-5.257 11.718-11.719 11.718-5.232 0-9.871-3.513-11.284-8.544a1.172 1.172 0 0 0-2.256.634c1.695 6.037 7.263 10.254 13.54 10.254 7.754 0 14.063-6.308 14.063-14.062 0-6.46-9.732-22.71-13.075-27.936z" fill="#D19876"></path>
		</symbol>
	
		<symbol id="why-2" viewBox="0 0 52 50">
			<path d="M40.921 19.653c.368-1.323.566-2.716.566-4.155 0-3.105-.915-6.102-2.647-8.666a.772.772 0 0 0-1.28.865 13.881 13.881 0 0 1 2.383 7.801 13.91 13.91 0 0 1-.522 3.787 15.495 15.495 0 0 0-2.941-.281 15.44 15.44 0 0 0-10.491 4.1 15.44 15.44 0 0 0-10.49-4.1c-1.006 0-1.99.097-2.942.28a13.929 13.929 0 0 1-.523-3.786c0-7.694 6.26-13.954 13.955-13.954 3.727 0 7.232 1.451 9.867 4.087a.772.772 0 0 0 1.092-1.092A15.397 15.397 0 0 0 25.989 0c-8.546 0-15.498 6.953-15.498 15.498 0 1.44.197 2.832.566 4.155C4.669 21.567 0 27.5 0 34.502 0 43.047 6.953 50 15.498 50c.993 0 1.986-.094 2.952-.28a.772.772 0 1 0-.292-1.517 14.09 14.09 0 0 1-2.66.253c-7.694 0-13.954-6.26-13.954-13.954 0-6.322 4.226-11.675 10.002-13.384a15.572 15.572 0 0 0 10.002 9.23 15.464 15.464 0 0 0-.567 4.154c0 3.953 1.488 7.564 3.933 10.304a13.968 13.968 0 0 1-3.984 2.554.772.772 0 0 0 .601 1.422 15.513 15.513 0 0 0 4.467-2.875A15.44 15.44 0 0 0 36.48 50c8.546 0 15.498-6.953 15.498-15.498 0-7.003-4.67-12.935-11.057-14.849zm-2.008 1.107a14.02 14.02 0 0 1-8.971 8.122 15.517 15.517 0 0 0-2.87-4.676 13.9 13.9 0 0 1 9.408-3.659c.83 0 1.642.073 2.433.213zm-12.924 4.55a13.983 13.983 0 0 1 2.433 3.93 13.978 13.978 0 0 1-4.866 0 13.985 13.985 0 0 1 2.433-3.93zm-12.924-4.55c.79-.14 1.604-.213 2.433-.213a13.9 13.9 0 0 1 9.409 3.659 15.519 15.519 0 0 0-2.87 4.676 14.02 14.02 0 0 1-8.971-8.122zm9.983 9.956a15.528 15.528 0 0 0 5.882 0c.34 1.204.523 2.474.523 3.786 0 3.462-1.271 6.706-3.456 9.2a13.896 13.896 0 0 1-3.472-9.2c0-1.312.183-2.582.523-3.786zm13.432 17.74a13.9 13.9 0 0 1-9.398-3.648 15.477 15.477 0 0 0 3.915-10.306c0-1.439-.198-2.832-.567-4.155a15.571 15.571 0 0 0 10.002-9.229c5.776 1.71 10.002 7.062 10.002 13.384 0 7.694-6.26 13.954-13.954 13.954z" fill="#D19876"></path>
		</symbol>
	
		<symbol id="why-3" viewBox="0 0 33 60">
			<path d="M21.094 37.165V8.203C21.094 3.68 17.414 0 12.89 0 8.367 0 4.687 3.68 4.687 8.203v28.962A12.782 12.782 0 0 0 0 47.109C0 54.217 5.783 60 12.89 60c7.108 0 12.891-5.783 12.891-12.89 0-3.895-1.7-7.486-4.687-9.945zM12.89 57.656c-5.816 0-10.547-4.731-10.547-10.547 0-3.349 1.538-6.424 4.22-8.439.294-.22.467-.568.467-.937V8.203c0-3.23 2.629-5.86 5.86-5.86 3.23 0 5.859 2.63 5.859 5.86v29.53c0 .37.173.716.468.938a10.468 10.468 0 0 1 4.22 8.438c0 5.816-4.732 10.547-10.547 10.547zM24.61 7.031h7.03a1.172 1.172 0 0 0 0-2.343h-7.03a1.172 1.172 0 0 0 0 2.343zM24.61 14.063h4.687a1.172 1.172 0 0 0 0-2.344h-4.688a1.172 1.172 0 0 0 0 2.344zM31.64 18.75h-7.03a1.172 1.172 0 0 0 0 2.344h7.03a1.172 1.172 0 0 0 0-2.344z" fill="#D19876"></path><path d="M24.61 28.125h4.687a1.172 1.172 0 0 0 0-2.344h-4.688a1.172 1.172 0 0 0 0 2.344zM31.64 32.813h-7.03a1.172 1.172 0 0 0 0 2.343h7.03a1.172 1.172 0 0 0 0-2.343zM14.063 41.368V8.203a1.172 1.172 0 1 0-2.344 0v33.165a5.87 5.87 0 0 0-4.688 5.741c0 3.231 2.629 5.86 5.86 5.86 3.23 0 5.859-2.629 5.859-5.86a5.87 5.87 0 0 0-4.688-5.741z" fill="#D19876"></path>
		</symbol>
	
		<symbol id="why-4" viewBox="0 0 49 60">
			<path d="M29.005 27.188a1.172 1.172 0 1 0 0 2.344 1.172 1.172 0 0 0 0-2.345zM24.317 20.156a1.172 1.172 0 1 0 .001 2.345 1.172 1.172 0 0 0 0-2.345zM10.255 50.625a1.172 1.172 0 1 0 0 2.345 1.172 1.172 0 0 0 0-2.345z" fill="#D19876"></path><path d="M47.57 47.775L32.52 21.02V6.831a3.522 3.522 0 0 0 2.344-3.315A3.52 3.52 0 0 0 31.35 0H17.286a3.52 3.52 0 0 0-3.515 3.516c0 1.528.98 2.83 2.343 3.314v14.191L1.066 47.775a8.126 8.126 0 0 0 .068 8.163A8.125 8.125 0 0 0 8.214 60H40.42a8.125 8.125 0 0 0 7.08-4.062 8.126 8.126 0 0 0 .07-8.163zM18.307 21.903c.098-.176.15-.374.15-.575V7.031h1.172a1.172 1.172 0 0 0 0-2.343h-2.344a1.173 1.173 0 0 1-1.172-1.172c0-.647.526-1.172 1.172-1.172H31.35c.646 0 1.172.525 1.172 1.172 0 .646-.526 1.171-1.172 1.171h-2.344a1.172 1.172 0 0 0 0 2.344h1.172v14.297c0 .201.052.4.15.575l6.907 12.28c-4.218-.342-8.421.51-12.283 2.51-4.965 2.57-10.492 3.022-15.703 1.316l9.06-16.106zm27.17 32.852a5.803 5.803 0 0 1-5.058 2.901H8.215a5.803 5.803 0 0 1-5.058-2.9 5.805 5.805 0 0 1-.049-5.832l4.97-8.835a22.458 22.458 0 0 0 8.56 1.239c3.27-.162 6.43-1.021 9.39-2.553 3.96-2.05 8.316-2.758 12.631-2.06l6.868 12.209a5.805 5.805 0 0 1-.05 5.831z" fill="#D19876"></path><path d="M19.63 27.188a3.52 3.52 0 0 0-3.516 3.515 3.52 3.52 0 0 0 3.516 3.516 3.52 3.52 0 0 0 3.516-3.516 3.52 3.52 0 0 0-3.516-3.515zm0 4.687a1.173 1.173 0 0 1-1.172-1.172c0-.646.526-1.172 1.172-1.172.646 0 1.172.526 1.172 1.172 0 .646-.526 1.172-1.172 1.172zM38.38 50.625H14.942a1.172 1.172 0 0 0 0 2.344H38.38a1.172 1.172 0 0 0 0-2.344z" fill="#D19876"></path>
		</symbol>
	
		<symbol id="why-5" viewBox="0 0 57 50">
			<path d="M56.205 14.502c-9.76-12.513-9.343-12.2-9.864-12.25L31.064.193c-3.85-.52-6.466.155-7.802.276a.82.82 0 0 0 .219 1.623c1.354-.124 3.784-.758 7.365-.276l10.49 1.413-13.147 2.68-13.147-2.68 4.544-.612a.82.82 0 0 0-.218-1.623l-9.33 1.256h-.004l-.013.002-.037.007-.024.005a1.054 1.054 0 0 0-.02.004l-.028.008c-.014.004-.029.007-.043.012l-.017.007a.162.162 0 0 0-.007.002l-.025.01a.763.763 0 0 0-.043.02l-.02.008a.845.845 0 0 0-.02.01l-.019.012c-.355.207-.182.222-9.545 12.144a.819.819 0 0 0-.085.872c.33.654-.548-.637 17.527 23.355a.819.819 0 1 0 1.308-.986L3.047 16.7l12.828 4.041 9.879 26.055-4.52-5.991a.819.819 0 0 0-1.308.986c4.733 6.273 5.22 6.923 5.254 6.96a3.891 3.891 0 0 0 2.216 1.235c.118.02 1.49.019 1.605-.003.997-.194 1.84-.757 2.237-1.281l15.988-21.19a.82.82 0 0 0-1.308-.987L30.624 46.797l9.878-26.056 12.829-4.04-5.11 6.772a.82.82 0 0 0 1.307.987c6.86-9.101 6.49-8.55 6.762-9.085a.819.819 0 0 0-.085-.873zM28.189 7.988L38.07 19.26H18.308l9.88-11.272zM2.106 14.687l7.77-9.964 5.268 14.07-13.038-4.106zm9.31-10.524l15.227 3.103-9.856 11.244-5.37-14.347zM28.28 48.36h-.18L17.687 20.898H38.69L28.279 48.36zM39.59 18.51L29.734 7.266l15.227-3.103-5.37 14.347zm1.643.284l5.268-14.072 7.77 9.965-13.038 4.107z" fill="#D19876"></path>
		</symbol>
	
		<symbol id="why-6" viewBox="0 0 50 50">
			<path d="M48.535 23.535c-.809 0-1.465.656-1.465 1.465 0 12.17-9.9 22.07-22.07 22.07S2.93 37.17 2.93 25 12.83 2.93 25 2.93c3.71 0 7.32.921 10.543 2.677L33.71 7.438a1.465 1.465 0 0 0 1.036 2.5h7.01c.808 0 1.464-.655 1.464-1.464v-7.01a1.465 1.465 0 0 0-2.5-1.035l-3.03 3.03A24.902 24.902 0 0 0 25 0C18.322 0 12.044 2.6 7.322 7.322 2.6 12.044 0 18.322 0 25c0 6.678 2.6 12.956 7.322 17.678C12.044 47.4 18.322 50 25 50c6.678 0 12.956-2.6 17.677-7.322C47.4 37.956 50 31.678 50 25c0-.809-.656-1.465-1.465-1.465z" fill="#D19876"></path><path d="M34.414 23.535h-7.95v-7.95a1.465 1.465 0 1 0-2.929 0V25c0 .809.656 1.465 1.465 1.465h9.414a1.465 1.465 0 0 0 0-2.93z" fill="#D19876"></path>
		</symbol>
	
</svg>
