<svg width="30" height="15" viewBox="0 0 30 15" fill="none" xmlns="http://www.w3.org/2000/svg">
<path d="M29.6563 6.4361C29.6559 6.43575 29.6556 6.43534 29.6552 6.43499L23.532 0.341246C23.0732 -0.115258 22.3312 -0.113559 21.8746 0.34523C21.4181 0.803959 21.4198 1.54593 21.8786 2.00249L25.9897 6.09374H1.17188C0.524648 6.09374 0 6.61839 0 7.26561C0 7.91284 0.524648 8.43748 1.17188 8.43748H25.9897L21.8786 12.5287C21.4199 12.9853 21.4181 13.7273 21.8747 14.186C22.3313 14.6448 23.0733 14.6464 23.532 14.19L29.6553 8.09623C29.6556 8.09588 29.6559 8.09547 29.6563 8.09512C30.1153 7.63704 30.1138 6.89266 29.6563 6.4361Z" fill="#999999"/>
</svg>
