<svg width="18" height="16" viewBox="0 0 18 16" fill="none" xmlns="http://www.w3.org/2000/svg">
<path d="M11.921 8.66475C11.7935 8.4105 11.534 8.25001 11.2498 8.25001H9.74974V0.749988C9.74974 0.335988 9.41449 0 8.99976 0C8.58502 0 8.24977 0.335988 8.24977 0.749988V8.24998H6.74976C6.46552 8.24998 6.20599 8.41046 6.07852 8.66471C5.95252 8.91896 5.97952 9.22272 6.14978 9.44997L8.39978 12.45C8.40952 12.4627 8.42453 12.4672 8.43504 12.4792C8.48454 12.5377 8.54304 12.5827 8.60829 12.6239C8.63529 12.6404 8.65628 12.6622 8.68553 12.6757C8.78154 12.7207 8.88652 12.7499 8.99979 12.7499C9.11306 12.7499 9.21804 12.7207 9.31479 12.6757C9.3433 12.6622 9.36503 12.6404 9.39129 12.6239C9.45654 12.5827 9.51504 12.5377 9.56454 12.4792C9.57428 12.4672 9.59003 12.4627 9.5998 12.45L11.8498 9.44997C12.0208 9.22275 12.0478 8.919 11.921 8.66475Z" fill="#323754"/>
<path d="M17.25 9.25C16.8353 9.25 16.5 9.58599 16.5 9.99999V12.25C16.5 13.4905 15.4905 14.5 14.25 14.5H3.75001C2.50952 14.5 1.50001 13.4905 1.50001 12.25V9.99999C1.50001 9.58599 1.16476 9.25 0.750023 9.25C0.33525 9.25 0 9.58599 0 9.99999V12.25C0 14.3177 1.68226 16 3.75001 16H14.25C16.3177 16 18 14.3177 18 12.25V9.99999C18 9.58599 17.6647 9.25 17.25 9.25Z" fill="#323754"/>
</svg>
