<svg width="12" height="12" viewBox="0 0 12 12" fill="none" xmlns="http://www.w3.org/2000/svg">
<path d="M8.75171 0H3.24829C1.45715 0 0 1.45715 0 3.24829V8.7518C0 10.5428 1.45715 12 3.24829 12H8.7518C10.5428 12 12 10.5428 12 8.7518V3.24829C12 1.45715 10.5428 0 8.75171 0V0ZM11.2965 8.7518C11.2965 10.1549 10.1549 11.2965 8.75171 11.2965H3.24829C1.84506 11.2965 0.703491 10.1549 0.703491 8.7518V3.24829C0.703491 1.84506 1.84506 0.703491 3.24829 0.703491H8.7518C10.1549 0.703491 11.2965 1.84506 11.2965 3.24829V8.7518Z" />
<path d="M6.00006 2.76923C4.21858 2.76923 2.76929 4.21852 2.76929 6C2.76929 7.78148 4.21858 9.23076 6.00006 9.23076C7.78154 9.23076 9.23083 7.78148 9.23083 6C9.23083 4.21852 7.78154 2.76923 6.00006 2.76923ZM6.00006 8.53808C4.60062 8.53808 3.46197 7.39952 3.46197 6C3.46197 4.60056 4.60062 3.46191 6.00006 3.46191C7.39958 3.46191 8.53814 4.60056 8.53814 6C8.53814 7.39952 7.39958 8.53808 6.00006 8.53808Z" />
<path d="M9.23077 1.84616C8.72175 1.84616 8.30774 2.26026 8.30774 2.76919C8.30774 3.27821 8.72175 3.69231 9.23077 3.69231C9.73979 3.69231 10.1539 3.27821 10.1539 2.76919C10.1539 2.26017 9.73979 1.84616 9.23077 1.84616ZM9.23077 3.02248C9.09114 3.02248 8.97748 2.90883 8.97748 2.76919C8.97748 2.62948 9.09114 2.5159 9.23077 2.5159C9.37049 2.5159 9.48415 2.62948 9.48415 2.76919C9.48415 2.90883 9.37049 3.02248 9.23077 3.02248Z" />
</svg>
