<svg width="11" height="12" viewBox="0 0 11 12" fill="none" xmlns="http://www.w3.org/2000/svg">
<path d="M10.7115 8.08988L9.17324 6.55156C8.62384 6.00217 7.68986 6.22195 7.4701 6.93614C7.30529 7.43062 6.75589 7.70532 6.26143 7.59542C5.16264 7.32072 3.67926 5.89229 3.40456 4.73855C3.23974 4.24407 3.56938 3.69468 4.06384 3.52988C4.77806 3.31012 4.99782 2.37614 4.44842 1.82675L2.91011 0.288434C2.47059 -0.0961445 1.81131 -0.0961445 1.42673 0.288434L0.382879 1.33229C-0.660976 2.43108 0.492758 5.34289 3.07493 7.92506C5.65709 10.5072 8.5689 11.7159 9.66769 10.6171L10.7115 9.57325C11.0961 9.13373 11.0961 8.47445 10.7115 8.08988Z"/>
</svg>
