<svg width="16" height="17" viewBox="0 0 16 17" fill="none" xmlns="http://www.w3.org/2000/svg">
<path d="M8 1.9007C4.38505 1.9007 1.45455 4.7724 1.45455 8.31482C1.45455 11.8572 4.38505 14.7289 8 14.7289C8.40166 14.7289 8.72727 15.048 8.72727 15.4416C8.72727 15.8352 8.40166 16.1543 8 16.1543C3.58172 16.1543 0 12.6444 0 8.31482C0 3.9852 3.58172 0.475342 8 0.475342C12.4183 0.475342 16 3.9852 16 8.31482C16 9.14744 15.9092 10.1612 15.5264 10.9917C15.3309 11.4158 15.0459 11.8215 14.6296 12.1214C14.2051 12.4271 13.6877 12.5909 13.0909 12.5909C12.4788 12.5909 11.956 12.4069 11.5341 12.0827C11.1231 11.7667 10.8434 11.3457 10.6519 10.9167C10.6351 10.8791 10.6189 10.8411 10.6032 10.8029C9.94276 11.4663 9.02047 11.8782 8 11.8782C5.99169 11.8782 4.36364 10.2828 4.36364 8.31482C4.36364 6.34681 5.99169 4.75142 8 4.75142C8.85008 4.75142 9.63203 5.03726 10.2512 5.51621C10.3677 5.27478 10.6185 5.10776 10.9091 5.10776C11.3108 5.10776 11.6364 5.42684 11.6364 5.82044V8.31482C11.6364 8.98907 11.7254 9.76497 11.9845 10.3454C12.1111 10.6291 12.2633 10.8316 12.4318 10.9611C12.5895 11.0823 12.7939 11.1655 13.0909 11.1655C13.4032 11.1655 13.6131 11.0845 13.7682 10.9728C13.9314 10.8553 14.0782 10.6711 14.2008 10.4049C14.4544 9.85483 14.5455 9.08691 14.5455 8.31482C14.5455 4.7724 11.615 1.9007 8 1.9007ZM10.1818 8.31482C10.1818 7.13401 9.20499 6.17678 8 6.17678C6.79501 6.17678 5.81818 7.13401 5.81818 8.31482C5.81818 9.49563 6.79501 10.4529 8 10.4529C9.20499 10.4529 10.1818 9.49563 10.1818 8.31482Z" fill="#FCFCFC"/>
</svg>
