<svg width="17" height="16" viewBox="0 0 17 16" fill="none" xmlns="http://www.w3.org/2000/svg">
<path d="M1.94177 2.43489C0.884586 3.42822 0.403586 4.96894 1.31567 6.30999C2.06934 7.41812 3.39234 9.03298 5.71054 11.2112C8.02874 13.3894 9.74739 14.6325 10.9268 15.3406C12.354 16.1976 13.9937 15.7457 15.0509 14.7523L16.1782 13.6932C17.0526 12.8716 17.0526 11.5394 16.1782 10.7178L14.6997 9.32867C14.0415 8.71023 13.0238 8.58337 12.2167 9.01917C11.7372 9.2781 11.1325 9.20273 10.7414 8.83528L8.23915 6.48412C7.84808 6.11668 7.76786 5.54847 8.04344 5.09793C8.50725 4.33964 8.37224 3.38331 7.71405 2.76487L6.23563 1.37575C5.36119 0.554112 3.94343 0.554114 3.06899 1.37575L1.94177 2.43489ZM2.57353 5.5547C2.14059 4.91815 2.2883 4.09288 2.99732 3.42669L4.12454 2.36755C4.41602 2.09367 4.8886 2.09367 5.18009 2.36755L6.6585 3.75667C6.83971 3.92694 6.87689 4.19024 6.74919 4.39902C6.13749 5.39907 6.31556 6.66031 7.1836 7.47592L9.68588 9.82708C10.5539 10.6427 11.8962 10.81 12.9606 10.2353C13.1827 10.1153 13.463 10.1502 13.6442 10.3205L15.1226 11.7096C15.4141 11.9835 15.4141 12.4275 15.1226 12.7014L13.9954 13.7605C13.2864 14.4267 12.4081 14.5655 11.7306 14.1587C10.6621 13.5171 9.02664 12.3434 6.76609 10.2194C4.50554 8.09535 3.25637 6.55869 2.57353 5.5547ZM10.6609 1.58118C10.6609 1.19386 10.9951 0.879874 11.4073 0.879874C14.2928 0.879874 16.632 3.07778 16.632 5.78903C16.632 6.17635 16.2978 6.49034 15.8856 6.49034C15.4734 6.49034 15.1392 6.17635 15.1392 5.78903C15.1392 3.85242 13.4684 2.28249 11.4073 2.28249C10.9951 2.28249 10.6609 1.9685 10.6609 1.58118ZM10.6609 4.38641C10.6609 3.99909 10.9951 3.68511 11.4073 3.68511C12.6439 3.68511 13.6464 4.62707 13.6464 5.78903C13.6464 6.17635 13.3123 6.49034 12.9001 6.49034C12.4878 6.49034 12.1537 6.17635 12.1537 5.78903C12.1537 5.40171 11.8195 5.08772 11.4073 5.08772C10.9951 5.08772 10.6609 4.77374 10.6609 4.38641Z"/>
</svg>
