<svg width="14" height="16" viewBox="0 0 14 16" fill="none" xmlns="http://www.w3.org/2000/svg">
<path d="M3.22894 3.58531C4.22913 2.64552 5.58569 2.11755 7.00018 2.11755C8.41468 2.11755 9.77123 2.64552 10.7714 3.58531C11.7716 4.5251 12.3335 5.79972 12.3335 7.12878C12.3335 9.06942 10.9897 10.9525 9.51622 12.4139C8.79311 13.1311 8.06774 13.7182 7.5224 14.1262C7.31944 14.2781 7.14217 14.4046 7.00018 14.5032C6.8582 14.4046 6.68093 14.2781 6.47797 14.1262C5.93263 13.7182 5.20725 13.1311 4.48414 12.4139C3.01066 10.9525 1.66683 9.06942 1.66683 7.12878C1.66683 5.79972 2.22874 4.5251 3.22894 3.58531ZM6.63002 15.793C6.63021 15.7931 6.63038 15.7932 7.00018 15.272L6.63038 15.7932C6.85432 15.9335 7.14605 15.9335 7.36998 15.7932L7.00018 15.272C7.36998 15.7932 7.37015 15.7931 7.37035 15.793L7.37084 15.7927L7.37225 15.7918L7.37669 15.789L7.39197 15.7793C7.40495 15.771 7.42347 15.7591 7.44715 15.7437C7.4945 15.7129 7.56254 15.668 7.64832 15.6098C7.81982 15.4934 8.06261 15.3235 8.35297 15.1063C8.93263 14.6726 9.70727 14.0461 10.4842 13.2755C12.0107 11.7615 13.6669 9.57298 13.6669 7.12878C13.6669 5.46746 12.9645 3.87418 11.7142 2.69944C10.464 1.52471 8.7683 0.864746 7.00018 0.864746C5.23207 0.864746 3.53637 1.52471 2.28612 2.69944C1.03588 3.87418 0.333496 5.46746 0.333496 7.12878C0.333496 9.57298 1.98968 11.7615 3.5162 13.2755C4.2931 14.0461 5.06773 14.6726 5.64739 15.1063C5.93775 15.3235 6.18054 15.4934 6.35204 15.6098C6.43782 15.668 6.50587 15.7129 6.55322 15.7437C6.5769 15.7591 6.59541 15.771 6.60839 15.7793L6.62367 15.789L6.62812 15.7918L6.62952 15.7927L6.63002 15.793ZM5.66685 7.12878C5.66685 6.43688 6.2638 5.87598 7.00018 5.87598C7.73657 5.87598 8.33352 6.43688 8.33352 7.12878C8.33352 7.82069 7.73657 8.38159 7.00018 8.38159C6.2638 8.38159 5.66685 7.82069 5.66685 7.12878ZM7.00018 4.62317C5.52742 4.62317 4.33351 5.74497 4.33351 7.12878C4.33351 8.5126 5.52742 9.6344 7.00018 9.6344C8.47295 9.6344 9.66686 8.5126 9.66686 7.12878C9.66686 5.74497 8.47295 4.62317 7.00018 4.62317Z" />
</svg>
