<svg width="30" height="16" viewBox="0 0 30 16" fill="none" xmlns="http://www.w3.org/2000/svg">
<path d="M0.34371 8.82946C0.344063 8.82981 0.344357 8.83022 0.344767 8.83058L6.46805 14.9243C6.92678 15.3808 7.66875 15.3791 8.12537 14.9203C8.58193 14.4616 8.58018 13.7196 8.12144 13.2631L4.01027 9.17183L28.8281 9.17183C29.4754 9.17183 30 8.64718 30 7.99995C30 7.35273 29.4754 6.82808 28.8281 6.82808L4.01033 6.82808L8.12139 2.73684C8.58012 2.28027 8.58187 1.5383 8.12531 1.07957C7.66869 0.620726 6.92666 0.619143 6.46799 1.07559L0.344707 7.16933C0.344355 7.16968 0.344063 7.17009 0.343651 7.17044C-0.115313 7.62853 -0.113848 8.3729 0.34371 8.82946Z" fill="#D19876"/>
</svg>
