<svg width="30" height="16" viewBox="0 0 30 16" fill="none" xmlns="http://www.w3.org/2000/svg">
<path d="M29.6563 7.17054C29.6559 7.17019 29.6556 7.16978 29.6552 7.16942L23.532 1.07568C23.0732 0.619178 22.3312 0.620877 21.8746 1.07967C21.4181 1.5384 21.4198 2.28037 21.8786 2.73693L25.9897 6.82817H1.17188C0.524648 6.82817 0 7.35282 0 8.00005C0 8.64727 0.524648 9.17192 1.17188 9.17192H25.9897L21.8786 13.2632C21.4199 13.7197 21.4181 14.4617 21.8747 14.9204C22.3313 15.3793 23.0733 15.3809 23.532 14.9244L29.6553 8.83067C29.6556 8.83032 29.6559 8.82991 29.6563 8.82956C30.1153 8.37147 30.1138 7.6271 29.6563 7.17054Z" fill="#D19876"/>
</svg>
