<svg width="24" height="24" viewBox="0 0 24 24" fill="none" xmlns="http://www.w3.org/2000/svg">
<path d="M19.5547 2.99612C19.3008 3.00783 19.0625 3.08205 18.8516 3.16408C18.6367 3.25002 17.6211 3.6758 16.0742 4.32424C14.5313 4.97658 12.5273 5.82033 10.5391 6.65627C6.56641 8.32815 2.66016 9.97658 2.66016 9.97658L2.70704 9.95705C2.70704 9.95705 2.4375 10.0469 2.15625 10.2383C2.01172 10.3321 1.85547 10.461 1.71875 10.6641C1.57813 10.8672 1.46875 11.1758 1.50782 11.4961C1.57813 12.0391 1.92969 12.3633 2.17969 12.543C2.4336 12.7227 2.67969 12.8086 2.67969 12.8086H2.6836L6.34766 14.043C6.51172 14.5703 7.46094 17.6992 7.69141 18.418C7.82422 18.8516 7.95704 19.1211 8.1211 19.3242C8.19922 19.4297 8.29297 19.5196 8.40625 19.5899C8.44922 19.6133 8.4961 19.6367 8.54297 19.6524C8.5586 19.6602 8.57422 19.6641 8.58985 19.668L8.55079 19.6602C8.56251 19.6602 8.57422 19.6719 8.58204 19.6719C8.60938 19.6836 8.63282 19.6836 8.66797 19.6914C9.25 19.8672 9.71485 19.5078 9.71485 19.5078L9.74219 19.4844L11.9023 17.5156L15.5273 20.2969L15.6094 20.3321C16.3672 20.6641 17.1289 20.4805 17.5352 20.1524C17.9414 19.8242 18.1016 19.4063 18.1016 19.4063L18.125 19.3399L20.9258 4.99221C21.0078 4.63674 21.0273 4.30862 20.9375 3.9844C20.8516 3.66408 20.625 3.3594 20.3516 3.19924C20.0781 3.03518 19.8047 2.9844 19.5547 2.99612ZM19.4766 4.53518C19.4727 4.58205 19.4805 4.57815 19.4609 4.66799V4.6758L16.6875 18.8711C16.6758 18.8946 16.6563 18.9375 16.6016 18.9805C16.543 19.0274 16.4961 19.0586 16.25 18.961L11.8164 15.5625L9.14063 18.0039L9.70313 14.4102C9.70313 14.4102 16.6445 7.93752 16.9453 7.66018C17.2422 7.38283 17.1445 7.32424 17.1445 7.32424C17.1641 6.9844 16.6914 7.22268 16.6914 7.22268L7.5625 12.8828L7.5586 12.8672L3.17969 11.3946V11.3906C3.17969 11.3906 3.17188 11.3867 3.16797 11.3867C3.17188 11.3867 3.19141 11.3789 3.19141 11.3789L3.21485 11.3672L3.24219 11.3594C3.24219 11.3594 7.14844 9.71096 11.1211 8.03908C13.1094 7.20315 15.1133 6.35549 16.6563 5.70705C18.1953 5.05861 19.3359 4.58596 19.3984 4.55862C19.4609 4.53518 19.4336 4.53518 19.4766 4.53518Z" fill="#3498DB"/>
</svg>
