<svg width="24" height="24" viewBox="0 0 24 24" fill="none" xmlns="http://www.w3.org/2000/svg">
<path d="M12 2.5C10.6805 2.5 6.665 2.5 4.445 4.527C3.123 5.844 2.5 7.747 2.5 10.5V12C2.5 14.753 3.123 16.656 4.4605 17.988C5.1265 18.5955 6.0345 19.081 7.1445 19.4165L7.5 19.5235V22.1875C7.5 22.5 7.5905 22.5 7.6205 22.5C7.682 22.5 7.7805 22.4805 7.9675 22.3145C8.0125 22.27 8.3425 21.913 9.9475 20.115L10.1095 19.9335L10.352 19.949C10.8895 19.9825 11.444 20 12 20C13.3195 20 17.335 20 19.555 17.9725C20.8765 16.6555 21.5 14.7525 21.5 12V10.5C21.5 7.747 20.877 5.844 19.5395 4.512C17.335 2.5 13.3195 2.5 12 2.5Z" fill="transparent"/>
<path d="M16.7255 14.427C16.17 13.959 15.9135 13.8175 15.1465 13.357C14.827 13.1655 14.34 13 14.0845 13C13.91 13 13.701 13.1335 13.573 13.2615C13.245 13.5895 13.1375 14 12.5625 14C12 14 11.0175 13.4275 10.3125 12.6875C9.57249 11.9825 8.99999 11 8.99999 10.4375C8.99999 9.8625 9.40299 9.7475 9.73099 9.419C9.85899 9.2915 9.99999 9.0825 9.99999 8.908C9.99999 8.6525 9.83449 8.173 9.64299 7.8535C9.18249 7.086 9.04149 6.8295 8.57299 6.2745C8.41449 6.0865 8.23399 6.0005 8.04499 6C7.72549 5.9995 7.30599 6.158 7.02199 6.3695C6.59499 6.688 6.14849 7.1215 6.02899 7.6615C6.01299 7.735 6.00349 7.809 6.00049 7.883C5.97749 8.4455 6.19849 9.0165 6.43699 9.5C6.99849 10.6395 7.74149 11.7425 8.54999 12.7275C8.80849 13.0425 9.08999 13.3355 9.38149 13.6185C9.66449 13.9095 9.95749 14.191 10.2725 14.45C11.2575 15.2585 12.3605 16.0015 13.5 16.563C13.979 16.799 14.543 17.016 15.1 17C15.1795 16.9975 15.259 16.9885 15.3385 16.971C15.8785 16.852 16.312 16.405 16.6305 15.978C16.842 15.694 17.0005 15.275 17 14.955C16.9995 14.766 16.9135 14.5855 16.7255 14.427ZM17 12C16.724 12 16.5 11.776 16.5 11.5V11C16.5 8.519 14.481 6.5 12 6.5C11.724 6.5 11.5 6.276 11.5 6C11.5 5.724 11.724 5.5 12 5.5C15.0325 5.5 17.5 7.9675 17.5 11V11.5C17.5 11.776 17.276 12 17 12ZM13.929 11C13.707 11 13.504 10.851 13.4455 10.626C13.3085 10.1005 12.8985 9.69 12.375 9.555C12.1075 9.4855 11.947 9.213 12.016 8.9455C12.085 8.6785 12.357 8.518 12.6255 8.5865C13.4995 8.813 14.1845 9.4975 14.413 10.3735C14.4825 10.641 14.3225 10.9135 14.0555 10.9835C14.013 10.9945 13.9705 11 13.929 11Z" fill="#7E57C2"/>
<path d="M15.5 11.4999C15.224 11.4999 15 11.2759 15 10.9999C15 9.40594 13.753 8.09094 12.161 8.00694C11.885 7.99244 11.6735 7.75694 11.688 7.48144C11.7025 7.20544 11.942 6.99344 12.2135 7.00844C14.337 7.12044 16 8.87394 16 10.9999C16 11.2759 15.776 11.4999 15.5 11.4999Z" fill="#7E57C2"/>
<path d="M12 2C9.75001 2 6.24401 2.207 4.10801 4.158C2.59801 5.6615 2.00001 7.7705 2.00001 10.5C2.00001 10.726 1.99901 10.978 2.00101 11.25C1.99901 11.5215 2.00001 11.7735 2.00001 11.9995C2.00001 14.729 2.59801 16.838 4.10801 18.3415C4.92101 19.084 5.93501 19.5725 7.00001 19.8945V22.1875C7.00001 22.9855 7.52451 23 7.62051 23H7.62501C7.87201 22.999 8.08551 22.878 8.29951 22.688C8.38001 22.6165 9.30951 21.5805 10.3205 20.4475C10.9225 20.486 11.4945 20.5 11.9995 20.5C14.2495 20.5 17.755 20.2925 19.8915 18.3415C21.401 16.8385 21.9995 14.729 21.9995 11.9995C21.9995 11.7735 22.0005 11.5215 21.9985 11.2495C22.0005 10.9775 21.9995 10.726 21.9995 10.4995C21.9995 7.77 21.4015 5.661 19.8915 4.1575C17.7555 2.207 14.25 2 12 2ZM20.5 11.8255V11.9995C20.5 14.4525 19.9775 16.124 18.857 17.2555C16.916 19 13.2185 19 11.9995 19C11.6285 19 11.0265 18.9995 10.316 18.95C10.1185 19.172 8.00001 21.5415 8.00001 21.5415V18.61C6.94801 18.3575 5.90851 17.9435 5.14301 17.256C4.02251 16.124 3.50001 14.4525 3.50001 11.9995V11.8255C3.50001 11.65 3.49951 11.4605 3.50101 11.239C3.49951 11.039 3.49951 10.85 3.50001 10.674V10.5C3.50001 8.047 4.02251 6.3755 5.14301 5.244C7.08351 3.4995 10.7815 3.4995 12 3.4995C13.2185 3.4995 16.916 3.4995 18.8565 5.244C19.9775 6.3755 20.4995 8.047 20.4995 10.5V10.674C20.4995 10.8495 20.5 11.039 20.4985 11.2605C20.5 11.461 20.5 11.65 20.5 11.8255Z" fill="#7E57C2"/>
</svg>
