<svg width="26" height="26" viewBox="0 0 26 26" fill="none" xmlns="http://www.w3.org/2000/svg">
<path fill-rule="evenodd" clip-rule="evenodd" d="M19.9105 6.09798C18.0739 4.26139 15.6364 3.25 13.0423 3.25C7.68913 3.25 3.3304 7.60449 3.3304 12.9577C3.3304 14.6673 3.77474 16.3346 4.62533 17.8073L3.25 22.8389L8.39583 21.4889C9.81348 22.2633 11.4131 22.6696 13.0381 22.6696H13.0423C18.3913 22.6696 22.7458 18.3151 22.75 12.9619C22.75 10.3678 21.7386 7.93034 19.9105 6.09798ZM13.0423 21.0319H13.0381C11.5908 21.0319 10.1689 20.6383 8.93327 19.9062L8.63704 19.7327L5.58171 20.5326L6.39421 17.5534L6.20378 17.2487C5.39551 15.9665 4.97233 14.4811 4.97233 12.9577C4.97233 8.51009 8.5905 4.89193 13.0465 4.89193C15.2005 4.89193 17.2233 5.73405 18.7467 7.25749C20.2702 8.78093 21.1081 10.8079 21.1081 12.9619C21.1081 17.4137 17.4899 21.0319 13.0423 21.0319ZM17.4645 14.9889C17.2233 14.8662 16.0299 14.278 15.8099 14.2018C15.5856 14.1172 15.4248 14.0791 15.264 14.3203C15.1032 14.5658 14.6377 15.1117 14.4938 15.2725C14.3542 15.4333 14.2145 15.4544 13.9733 15.3317C13.7279 15.2132 12.945 14.9551 12.0182 14.1257C11.2988 13.4867 10.8122 12.6911 10.6725 12.4499C10.5286 12.2044 10.6556 12.0732 10.7741 11.9548C10.8883 11.8447 11.0195 11.6712 11.1423 11.5273C11.2607 11.3877 11.3031 11.2861 11.3835 11.1253C11.4639 10.9645 11.4216 10.8206 11.3623 10.6979C11.3031 10.5794 10.8164 9.38184 10.6133 8.89518C10.4186 8.42546 10.2155 8.48893 10.0674 8.48047C9.92773 8.47624 9.76693 8.47624 9.60612 8.47624C9.44108 8.47624 9.17871 8.53548 8.95866 8.78092C8.73438 9.02214 8.10807 9.60612 8.10807 10.7995C8.10807 11.9928 8.97982 13.1481 9.09831 13.3132C9.22103 13.4697 10.8122 15.9199 13.2454 16.9694C13.821 17.2233 14.2738 17.3714 14.625 17.4814C15.2048 17.6676 15.738 17.6423 16.1569 17.5788C16.6224 17.5111 17.5915 16.9948 17.7946 16.4235C17.9935 15.8607 17.9935 15.374 17.9342 15.2725C17.8708 15.1709 17.71 15.1117 17.4645 14.9889Z" fill="#40C351"/>
</svg>
