<svg width="49" height="60" viewBox="0 0 49 60" fill="none" xmlns="http://www.w3.org/2000/svg">
<path d="M29.005 27.1875C28.3581 27.1875 27.8331 27.7125 27.8331 28.3594C27.8331 29.0063 28.3581 29.5312 29.005 29.5312C29.6519 29.5312 30.1769 29.0063 30.1769 28.3594C30.1769 27.7125 29.6519 27.1875 29.005 27.1875Z" fill="#D19876"/>
<path d="M24.3175 20.1562C23.6706 20.1562 23.1456 20.6812 23.1456 21.3281C23.1456 21.975 23.6706 22.5 24.3175 22.5C24.9644 22.5 25.4894 21.975 25.4894 21.3281C25.4894 20.6812 24.9644 20.1562 24.3175 20.1562Z" fill="#D19876"/>
<path d="M10.255 50.625C9.60813 50.625 9.08313 51.15 9.08313 51.7969C9.08313 52.4438 9.60813 52.9688 10.255 52.9688C10.9019 52.9688 11.4269 52.4438 11.4269 51.7969C11.4269 51.15 10.9019 50.625 10.255 50.625Z" fill="#D19876"/>
<path d="M47.5694 47.7748L32.5206 21.0212V6.83039C33.8848 6.34676 34.8644 5.04352 34.8644 3.51562C34.8644 1.57711 33.2873 0 31.3487 0H17.2862C15.3477 0 13.7706 1.57711 13.7706 3.51562C13.7706 5.04352 14.7502 6.34676 16.1144 6.83039V21.0212L1.06562 47.7748C-0.379067 50.343 -0.353403 53.395 1.13406 55.9384C2.6214 58.4816 5.26843 60 8.21476 60H40.4202C43.3666 60 46.0135 58.4816 47.5009 55.9384C48.9884 53.395 49.0141 50.343 47.5694 47.7748ZM18.3077 21.9026C18.4063 21.7273 18.4581 21.5293 18.4581 21.3281V7.03125H19.63C20.2771 7.03125 20.8019 6.50648 20.8019 5.85938C20.8019 5.21227 20.2771 4.6875 19.63 4.6875H17.2862C16.6401 4.6875 16.1144 4.1618 16.1144 3.51562C16.1144 2.86945 16.6401 2.34375 17.2862 2.34375H31.3487C31.9949 2.34375 32.5206 2.86945 32.5206 3.51562C32.5206 4.1618 31.9949 4.6875 31.3487 4.6875H29.005C28.3579 4.6875 27.8331 5.21227 27.8331 5.85938C27.8331 6.50648 28.3579 7.03125 29.005 7.03125H30.1769V21.3281C30.1769 21.5295 30.2287 21.7271 30.3273 21.9026L37.2345 34.1823C33.0163 33.8407 28.8128 34.6938 24.9508 36.6936C19.986 39.2629 14.4591 39.7152 9.24765 38.0093L18.3077 21.9026ZM45.4777 54.7552C44.4154 56.5717 42.5247 57.6562 40.4202 57.6562H8.21476C6.11031 57.6562 4.2196 56.5717 3.1573 54.7552C2.09476 52.9384 2.07636 50.7584 3.10843 48.9237L8.07812 40.0887C10.4894 40.9307 12.9812 41.3557 15.5121 41.3557C15.8868 41.3557 16.2624 41.3464 16.6387 41.3278C19.9088 41.1659 23.0678 40.307 26.0282 38.775C29.9882 36.7247 34.3437 36.0169 38.659 36.7147L45.5267 48.9237C46.5586 50.7584 46.5403 52.9384 45.4777 54.7552Z" fill="#D19876"/>
<path d="M19.63 27.1875C17.6915 27.1875 16.1144 28.7646 16.1144 30.7031C16.1144 32.6416 17.6915 34.2188 19.63 34.2188C21.5685 34.2188 23.1456 32.6416 23.1456 30.7031C23.1456 28.7646 21.5685 27.1875 19.63 27.1875ZM19.63 31.875C18.9838 31.875 18.4581 31.3493 18.4581 30.7031C18.4581 30.057 18.9838 29.5312 19.63 29.5312C20.2762 29.5312 20.8019 30.057 20.8019 30.7031C20.8019 31.3493 20.2762 31.875 19.63 31.875Z" fill="#D19876"/>
<path d="M38.38 50.625H14.9425C14.2954 50.625 13.7706 51.1498 13.7706 51.7969C13.7706 52.444 14.2954 52.9688 14.9425 52.9688H38.38C39.0271 52.9688 39.5519 52.444 39.5519 51.7969C39.5519 51.1498 39.0271 50.625 38.38 50.625Z" fill="#D19876"/>
</svg>
