<svg width="50" height="50" viewBox="0 0 50 50" fill="none" xmlns="http://www.w3.org/2000/svg">
<path d="M48.535 23.5351C47.726 23.5351 47.0701 24.191 47.0701 24.9999C47.0701 37.1695 37.1694 47.0701 25 47.0701C12.8304 47.0701 2.92977 37.1695 2.92977 24.9999C2.92977 12.8304 12.8304 2.92976 25 2.92976C28.7108 2.92976 32.3204 3.85114 35.5428 5.6068L33.7114 7.43814C33.2925 7.85708 33.1672 8.48705 33.3939 9.03451C33.6206 9.58187 34.1547 9.9388 34.7472 9.9388H41.7562C42.5652 9.9388 43.221 9.28295 43.221 8.47397V1.46493C43.221 0.87245 42.8642 0.338371 42.3167 0.111614C41.7692 -0.11524 41.1392 0.0101502 40.7204 0.429191L37.6914 3.45818C33.8546 1.19286 29.4923 0.000189293 24.9999 0.000189293C18.3222 0.000189293 12.0441 2.60066 7.32222 7.32241C2.60038 12.0444 0 18.3224 0 25C0 31.6777 2.60038 37.9557 7.32222 42.6776C12.0442 47.3995 18.3222 50 24.9999 50C31.6776 50 37.9555 47.3995 42.6774 42.6776C47.3993 37.9557 49.9996 31.6777 49.9996 25C49.9998 24.191 49.344 23.5351 48.535 23.5351Z" fill="#D19876"/>
<path d="M34.4139 23.5351H26.4648V15.5859C26.4648 14.7769 25.809 14.1211 25 14.1211C24.191 14.1211 23.5352 14.7769 23.5352 15.5859V24.9999C23.5352 25.8089 24.191 26.4648 25 26.4648H34.4139C35.2229 26.4648 35.8787 25.8089 35.8787 24.9999C35.8787 24.191 35.2229 23.5351 34.4139 23.5351Z" fill="#D19876"/>
</svg>
