<svg width="50" height="60" viewBox="0 0 50 60" fill="none" xmlns="http://www.w3.org/2000/svg">
<path d="M44.5312 28.4766C44.5312 27.8293 44.0067 27.3047 43.3594 27.3047C42.7121 27.3047 42.1875 27.8293 42.1875 28.4766C42.1875 32.3538 39.0335 35.5078 35.1562 35.5078C34.509 35.5078 33.9844 36.0324 33.9844 36.6797C33.9844 37.327 34.509 37.8516 35.1562 37.8516C40.3258 37.8516 44.5312 33.6461 44.5312 28.4766Z" fill="#D19876"/>
<path d="M20.1169 39.8991C19.4975 40.8334 14.0625 49.129 14.0625 52.6172C14.0625 56.619 17.2824 60 21.0937 60C24.9051 60 28.125 56.619 28.125 52.6172C28.125 49.129 22.69 40.8334 22.0706 39.8991C21.8532 39.5718 21.4865 39.375 21.0937 39.375C20.701 39.375 20.3343 39.5718 20.1169 39.8991ZM25.7812 52.6172C25.7812 55.3015 23.5908 57.6562 21.0937 57.6562C18.5966 57.6562 16.4062 55.3015 16.4062 52.6172C16.4062 50.8113 18.9803 46.0982 21.0937 42.7144C23.2072 46.0982 25.7812 50.8113 25.7812 52.6172Z" fill="#D19876"/>
<path d="M8.20312 19.4531C7.81815 19.4531 7.45789 19.6422 7.23907 19.959C6.49796 21.0315 0 30.558 0 34.6875C0 39.2107 3.67996 42.8906 8.20312 42.8906C12.7263 42.8906 16.4062 39.2107 16.4062 34.6875C16.4062 30.558 9.90829 21.0315 9.16718 19.959C8.94836 19.6422 8.5881 19.4531 8.20312 19.4531ZM8.20312 40.5469C4.97223 40.5469 2.34375 37.9184 2.34375 34.6875C2.34375 32.4211 5.62088 26.6675 8.20312 22.7261C10.7854 26.667 14.0625 32.4197 14.0625 34.6875C14.0625 37.9184 11.434 40.5469 8.20312 40.5469Z" fill="#D19876"/>
<path d="M23.4375 27.3047C23.4375 27.952 22.9129 28.4766 22.2656 28.4766C21.6183 28.4766 21.0938 27.952 21.0938 27.3047C21.0938 26.6574 21.6183 26.1328 22.2656 26.1328C22.9129 26.1328 23.4375 26.6574 23.4375 27.3047Z" fill="#D19876"/>
<path d="M36.1441 0.541077C35.9285 0.204163 35.5564 0 35.1563 0C34.7562 0 34.384 0.204163 34.1684 0.541077C33.831 1.06979 25.8655 13.5851 22.5403 22.4084C22.3119 23.0141 22.6181 23.6902 23.2237 23.9181C23.8289 24.1466 24.505 23.8408 24.7334 23.2352C27.2942 16.4392 32.8903 7.06741 35.1595 3.3815C39.1658 9.86023 46.875 23.3798 46.875 28.4766C46.875 34.9384 41.6181 40.1953 35.1563 40.1953C29.9245 40.1953 25.2846 36.682 23.8724 31.6512C23.6975 31.0281 23.0507 30.6647 22.4272 30.8395C21.8042 31.0144 21.4412 31.6617 21.6156 32.2847C23.3107 38.3221 28.879 42.5391 35.1563 42.5391C42.9103 42.5391 49.2188 36.2306 49.2188 28.4766C49.2188 22.0171 39.4867 5.76736 36.1441 0.541077Z" fill="#D19876"/>
</svg>
