<svg width="33" height="60" viewBox="0 0 33 60" fill="none" xmlns="http://www.w3.org/2000/svg">
<path d="M21.0938 37.1647V8.20312C21.0938 3.67992 17.4138 0 12.8906 0C8.36742 0 4.6875 3.67992 4.6875 8.20312V37.1647C1.70086 39.624 0 43.2156 0 47.1094C0 54.2173 5.78273 60 12.8906 60C19.9985 60 25.7812 54.2173 25.7812 47.1094C25.7812 43.2155 24.0804 39.624 21.0938 37.1647ZM12.8906 57.6562C7.07508 57.6562 2.34375 52.9249 2.34375 47.1094C2.34375 43.7605 3.88172 40.6847 6.5632 38.6705C6.85793 38.4491 7.03125 38.102 7.03125 37.7334V8.20312C7.03125 4.97227 9.65977 2.34375 12.8906 2.34375C16.1215 2.34375 18.75 4.97227 18.75 8.20312V37.7336C18.75 38.1021 18.9233 38.4492 19.218 38.6706C21.8995 40.6847 23.4375 43.7605 23.4375 47.1094C23.4375 52.9249 18.7062 57.6562 12.8906 57.6562Z" fill="#D19876"/>
<path d="M24.6094 7.03125H31.6406C32.2877 7.03125 32.8125 6.5066 32.8125 5.85938C32.8125 5.21215 32.2877 4.6875 31.6406 4.6875H24.6094C23.9623 4.6875 23.4375 5.21215 23.4375 5.85938C23.4375 6.5066 23.9623 7.03125 24.6094 7.03125Z" fill="#D19876"/>
<path d="M24.6094 14.0625H29.2969C29.944 14.0625 30.4688 13.5379 30.4688 12.8906C30.4688 12.2434 29.944 11.7188 29.2969 11.7188H24.6094C23.9623 11.7188 23.4375 12.2434 23.4375 12.8906C23.4375 13.5379 23.9623 14.0625 24.6094 14.0625Z" fill="#D19876"/>
<path d="M31.6406 18.75H24.6094C23.9623 18.75 23.4375 19.2746 23.4375 19.9219C23.4375 20.5691 23.9623 21.0938 24.6094 21.0938H31.6406C32.2877 21.0938 32.8125 20.5691 32.8125 19.9219C32.8125 19.2746 32.2877 18.75 31.6406 18.75Z" fill="#D19876"/>
<path d="M24.6094 28.125H29.2969C29.944 28.125 30.4688 27.6004 30.4688 26.9531C30.4688 26.3059 29.944 25.7812 29.2969 25.7812H24.6094C23.9623 25.7812 23.4375 26.3059 23.4375 26.9531C23.4375 27.6004 23.9623 28.125 24.6094 28.125Z" fill="#D19876"/>
<path d="M31.6406 32.8125H24.6094C23.9623 32.8125 23.4375 33.3371 23.4375 33.9844C23.4375 34.6316 23.9623 35.1562 24.6094 35.1562H31.6406C32.2877 35.1562 32.8125 34.6316 32.8125 33.9844C32.8125 33.3371 32.2877 32.8125 31.6406 32.8125Z" fill="#D19876"/>
<path d="M14.0625 41.3679V8.20312C14.0625 7.5559 13.5379 7.03125 12.8906 7.03125C12.2434 7.03125 11.7188 7.5559 11.7188 8.20312V41.3679C9.04746 41.9123 7.03125 44.2798 7.03125 47.1094C7.03125 50.3402 9.65977 52.9688 12.8906 52.9688C16.1215 52.9688 18.75 50.3402 18.75 47.1094C18.75 44.2798 16.7338 41.9123 14.0625 41.3679Z" fill="#D19876"/>
</svg>
