<svg width="52" height="50" viewBox="0 0 52 50" fill="none" xmlns="http://www.w3.org/2000/svg">
<path d="M40.9211 19.6532C41.2895 18.3302 41.4874 16.9371 41.4874 15.4984C41.4874 12.3925 40.5718 9.39612 38.84 6.83235C38.6012 6.47941 38.1218 6.38622 37.7681 6.62495C37.4147 6.86368 37.3219 7.34352 37.5607 7.69685C39.1196 10.004 39.9432 12.7018 39.9432 15.4984C39.9432 16.8102 39.7612 18.08 39.4209 19.2848C38.4684 19.1008 37.4853 19.0036 36.4796 19.0036C32.4367 19.0036 28.7511 20.5601 25.989 23.1044C23.2266 20.5601 19.5409 19.0036 15.4984 19.0036C14.4927 19.0036 13.5096 19.1008 12.5567 19.2848C12.2169 18.08 12.0344 16.8102 12.0344 15.4984C12.0344 7.80392 18.2945 1.54381 25.989 1.54381C29.7163 1.54381 33.2207 2.99523 35.8563 5.63117C36.1576 5.93255 36.6462 5.93255 36.948 5.63117C37.2494 5.32938 37.2494 4.84082 36.948 4.53943C34.0206 1.61202 30.1287 0 25.989 0C17.4431 0 10.4906 6.95251 10.4906 15.4984C10.4906 16.9371 10.6885 18.3302 11.0569 19.6532C4.66911 21.5674 0 27.4991 0 34.5016C0 43.0475 6.95251 50 15.4984 50C16.491 50 17.484 49.9056 18.4504 49.7192C18.8692 49.6383 19.1432 49.2334 19.0623 48.8151C18.9814 48.3963 18.5765 48.1227 18.1581 48.2032C17.2877 48.3709 16.393 48.4562 15.4984 48.4562C7.80392 48.4562 1.54381 42.1965 1.54381 34.5016C1.54381 28.1796 5.77036 22.8272 11.5459 21.1185C13.2709 25.5365 16.9673 28.9743 21.5475 30.3472C21.1791 31.6698 20.9813 33.0633 20.9813 34.5016C20.9813 38.4545 22.4695 42.0656 24.9143 44.8062C23.7623 45.8583 22.4228 46.7284 20.9297 47.3597C20.5371 47.5259 20.3535 47.9791 20.5197 48.3717C20.6858 48.7643 21.1387 48.9479 21.5313 48.7818C23.2075 48.0727 24.7093 47.0928 25.9977 45.9071C28.759 48.4467 32.4411 50 36.4796 50C45.0255 50 51.978 43.0475 51.978 34.5016C51.978 27.4991 47.3089 21.5674 40.9211 19.6532ZM38.9126 20.76C37.3208 24.6558 34.0174 27.676 29.9415 28.8819C29.2658 27.1509 28.2871 25.5707 27.0712 24.2057C29.5541 21.9346 32.8579 20.5474 36.4796 20.5474C37.3093 20.5474 38.1222 20.6204 38.9126 20.76ZM25.989 25.3109C27.0042 26.4681 27.8307 27.7938 28.4219 29.24C27.6316 29.3796 26.8186 29.453 25.989 29.453C25.1594 29.453 24.3465 29.3796 23.5561 29.24C24.1474 27.7938 24.9738 26.4681 25.989 25.3109ZM13.0655 20.76C13.8558 20.6208 14.6688 20.5474 15.4984 20.5474C19.1202 20.5474 22.4239 21.935 24.9068 24.2057C23.691 25.5707 22.7122 27.1509 22.0365 28.8819C17.9606 27.676 14.6573 24.6554 13.0655 20.76ZM23.0477 30.7156C24.0003 30.8992 24.9833 30.9968 25.989 30.9968C26.9947 30.9968 27.9778 30.8992 28.9303 30.7156C29.2706 31.92 29.4526 33.1902 29.4526 34.502C29.4526 37.9644 28.1816 41.2082 25.9966 43.7014C23.8369 41.2435 22.5251 38.0231 22.5251 34.502C22.5255 33.1902 22.7075 31.92 23.0477 30.7156ZM36.4796 48.4562C32.863 48.4562 29.5632 47.073 27.0815 44.8078C29.5561 42.0275 30.9968 38.3883 30.9968 34.502C30.9968 33.0633 30.7989 31.6702 30.4305 30.3472C35.0108 28.9747 38.7071 25.5365 40.4322 21.1185C46.2077 22.8272 50.4342 28.1796 50.4342 34.5016C50.4342 42.1965 44.1741 48.4562 36.4796 48.4562Z" fill="#D19876"/>
</svg>
