<svg width="57" height="50" viewBox="0 0 57 50" fill="none" xmlns="http://www.w3.org/2000/svg">
<path d="M56.2046 14.5021C46.4456 1.98893 46.8618 2.30242 46.3407 2.25133L31.0643 0.193657C27.2134 -0.325083 24.5977 0.349136 23.262 0.469929C22.8138 0.530271 22.4994 0.942642 22.5596 1.39091C22.62 1.83918 23.0329 2.15421 23.4806 2.09332C24.8352 1.96911 27.2646 1.33497 30.8456 1.81705L41.336 3.23001C40.5509 3.39 28.9743 5.74905 28.1887 5.90916L15.0417 3.23001L19.586 2.61789C20.0343 2.55755 20.3487 2.14518 20.2885 1.69691C20.2281 1.24853 19.8149 0.934054 19.3675 0.994505L10.0376 2.25111C10.0363 2.25122 10.035 2.25144 10.0337 2.25166L10.0213 2.25331C10.0088 2.25507 9.99657 2.25783 9.98412 2.26014C9.97608 2.26168 9.96783 2.26278 9.9599 2.26454C9.95318 2.26597 9.94646 2.26741 9.93986 2.26895C9.9305 2.27126 9.92125 2.27401 9.912 2.27655C9.89769 2.28051 9.88337 2.28436 9.86928 2.2891C9.86344 2.29108 9.85793 2.2935 9.8521 2.29559C9.84957 2.29648 9.84703 2.29747 9.84461 2.29846C9.83646 2.30154 9.82798 2.3044 9.81995 2.3076C9.80519 2.31365 9.79088 2.32037 9.77656 2.32731C9.77029 2.33028 9.76412 2.33303 9.75795 2.33612C9.75101 2.33964 9.7443 2.34305 9.73758 2.34669C9.73108 2.35021 9.72492 2.35418 9.71842 2.35803C9.36276 2.56526 9.53641 2.57991 0.173207 14.502C-0.0214717 14.7517 -0.0549459 15.0912 0.0875397 15.3741C0.417217 16.0282 -0.459609 14.7371 17.6153 38.7292C17.8877 39.0904 18.4012 39.1622 18.7624 38.8897C19.1235 38.6173 19.1953 38.1038 18.9229 37.7426L3.04703 16.7005L15.8754 20.7412C16.183 21.5526 25.5795 46.3364 25.7538 46.7963L21.2333 40.8049C20.9609 40.4438 20.4475 40.372 20.0862 40.6444C19.725 40.9168 19.6533 41.4304 19.9256 41.7915C24.659 48.0639 25.1467 48.7139 25.1804 48.7519C25.7784 49.4259 26.6055 49.8521 27.3965 49.9856C27.5136 50.0055 28.8859 50.005 29.0007 49.9827C29.9981 49.789 30.8405 49.2256 31.2383 48.7018L47.2259 27.5114C47.4983 27.1502 47.4265 26.6366 47.0654 26.3642C46.704 26.092 46.1908 26.1638 45.9182 26.5248L30.6236 46.7967C31.1122 45.508 40.1432 21.6883 40.5023 20.7413L53.3307 16.7006L48.2206 23.4734C47.9483 23.8346 48.02 24.3482 48.3811 24.6206C48.7424 24.893 49.2559 24.8212 49.5283 24.46C56.3885 15.3588 56.0189 15.9105 56.2896 15.3754C56.4328 15.0923 56.3996 14.7522 56.2046 14.5021ZM28.1888 7.98753L38.0702 19.2603H18.3075L28.1888 7.98753ZM2.10645 14.6869L9.87654 4.7227L15.1444 18.7939L2.10645 14.6869ZM11.4162 4.16288C13.038 4.49333 24.6665 6.86317 26.6432 7.26596L16.7872 18.5097L11.4162 4.16288ZM28.2793 48.3597H28.0985L17.6868 20.8982H38.691L28.2793 48.3597ZM39.5904 18.5096L29.7345 7.26596C31.0456 6.99872 42.9453 4.57382 44.9614 4.16288L39.5904 18.5096ZM41.2332 18.7936L46.5011 4.72248L54.2713 14.6868L41.2332 18.7936Z" fill="#D19876"/>
</svg>
